<svg xmlns="http://www.w3.org/2000/svg" width="520" height="140" viewBox="0 0 520 140" role="img" aria-label="PataFundi">
  <defs>
    <linearGradient id="bg" x1="0" y1="0" x2="1" y2="1">
      <stop offset="0" stop-color="#ff7a18"/>
      <stop offset="1" stop-color="#ff3d6e"/>
    </linearGradient>
  </defs>
  <rect x="0" y="0" width="520" height="140" fill="white"/>
  <rect x="18" y="18" width="104" height="104" rx="24" fill="url(#bg)"/>
  <g fill="white" transform="translate(36 36)">
    <path d="M22 6a10 10 0 0 0 7.8 16.3l2.5 2.5-8.1 8.1a6 6 0 0 0 8.5 8.5l8.1-8.1 2.5 2.5A10 10 0 1 0 62 22l-7 7-6-6 7-7A10 10 0 0 0 22 6Z" opacity="0.95"/>
  </g>
  <text x="142" y="86" font-family="system-ui,-apple-system,Segoe UI,Roboto,Helvetica,Arial,sans-serif" font-size="64" font-weight="800">
    <tspan fill="#1f7a3a">Pata</tspan><tspan fill="#0b2d4a">Fundi</tspan>
  </text>
  <text x="142" y="114" font-family="system-ui,-apple-system,Segoe UI,Roboto,Helvetica,Arial,sans-serif" font-size="16" fill="#5b6470">
    Service professionals marketplace
  </text>
</svg>

